#!OML:ASF E:\Steps\Project 1\Capture day 1\Session 2\Subject.ASF
:FULLY-SPECIFIED
:DEGREES
789
root 14.8847 15.8741 -11.585 -194.249 84.6379 144.773
lowerback -25.4514 -4.64877 -5.70028
upperback 0.908388 -4.21256 -0.651942
thorax 15.7992 -2.25205 0.889821
lowerneck 4.20111 -0.277924 -7.3563
upperneck 6.93752 -0.858697 9.6046
head 1.58943 -0.420174 4.53896
rclavicle 1.64991e-014 -1.78906e-014
rhumerus -43.5538 -26.0868 -68.5993
rradius 23.3275
rwrist 6.08699
rhand -6.18211 -52.5229
rfingers 7.12502
rthumb 19.6573 -81.5491
lclavicle 1.64991e-014 -1.78906e-014
lhumerus -13.8762 -8.10465 81.7032
lradius 37.1883
lwrist 3.97522
lhand -23.5397 -12.0464
lfingers 7.12502
lthumb 2.92194 17.9133
rfemur -44.6281 6.52562 5.82801
rtibia 8.40927
rfoot -12.9488 -16.1132
rtoes -27.1149
lfemur -14.9621 -9.29745 -24.3945
ltibia 13.0377
lfoot -12.8626 -8.4209
ltoes -34.5905
790
root 15.035 15.8518 -11.5744 -192.975 84.3166 146.12
lowerback -25.6344 -4.67536 -5.62244
upperback 0.9197 -4.24878 -0.69352
thorax 15.9103 -2.25786 0.771446
lowerneck 4.5758 -0.439717 -7.07557
upperneck 6.53896 -1.07101 9.80692
head 1.40944 -0.527985 4.5523
rclavicle 1.31198e-014 7.95139e-016
rhumerus -44.1822 -27.2166 -67.7369
rradius 22.8768
rwrist 7.24459
rhand -6.10956 -52.377
rfingers 7.12502
rthumb 19.727 -81.396
lclavicle 1.31198e-014 7.95139e-016
lhumerus -13.7893 -8.50568 81.6585
lradius 37.4858
lwrist 3.84816
lhand -23.4643 -12.1355
lfingers 7.12502
lthumb 2.99469 17.8232
rfemur -44.1271 7.79315 4.6952
rtibia 6.91961
rfoot -12.9644 -18.2192
rtoes -26.7655
lfemur -14.549 -9.85194 -24.426
ltibia 13.5774
lfoot -13.2193 -8.15791
ltoes -34.8231
791
root 15.184 15.827 -11.5569 -190.808 84.0764 148.231
lowerback -25.8643 -4.77045 -5.47733
upperback 1.20579 -4.40358 -0.634325
thorax 15.6216 -2.31416 0.660838
lowerneck 4.1831 -0.446232 -6.95383
upperneck 7.10655 -1.07858 9.70538
head 1.6669 -0.512877 4.49639
rclavicle 3.98563e-014 6.36111e-015
rhumerus -44.5606 -27.8248 -67.1606
rradius 22.3732
rwrist 7.85768
rhand -6.5922 -52.3186
rfingers 7.12502
rthumb 19.263 -81.3846
lclavicle 3.98563e-014 6.36111e-015
lhumerus -13.8546 -8.46724 81.6423
lradius 37.8006
lwrist 3.68648
lhand -23.8789 -12.0628
lfingers 7.12502
lthumb 2.59432 17.9012
rfemur -43.913 7.94409 4.61782
rtibia 6.17192
rfoot -13.267 -18.9303
rtoes -26.2921
lfemur -14.3415 -10.2337 -24.2759
ltibia 14.2246
lfoot -13.614 -7.89795
ltoes -36.1484
792
root 15.3358 15.8027 -11.5343 -189.681 83.9089 149.351
lowerback -26.0506 -4.91172 -5.45992
upperback 1.11556 -4.59873 -0.521657
thorax 15.6294 -2.40007 0.690808
lowerneck 4.91992 -0.46895 -7.05695
upperneck 6.47494 -1.12444 10.0025
head 1.33335 -0.558513 4.62057
rclavicle -2.45499e-014 -6.75868e-015
rhumerus -44.7088 -27.7413 -66.8581
rradius 21.7801
rwrist 7.81054
rhand -6.8679 -52.4017
rfingers 7.12502
rthumb 18.9979 -81.4939
lclavicle -2.45499e-014 -6.75868e-015
lhumerus -14.0905 -8.09045 81.7565
lradius 38.1072
lwrist 3.68235
lhand -23.9047 -12.1337
lfingers 7.12502
lthumb 2.56935 17.8305
rfemur -43.6561 7.28615 5.25577
rtibia 5.87576
rfoot -13.6395 -18.4805
rtoes -25.1442
lfemur -14.0636 -10.3869 -24.2263
ltibia 14.9047
lfoot -14.1353 -7.46996
ltoes -38.5934
793
root 15.4925 15.7808 -11.5128 -188.896 83.8331 150.22
lowerback -26.2171 -4.98356 -5.40331
upperback 1.09059 -4.72075 -0.392792
thorax 15.6987 -2.45409 0.743297
lowerneck 4.50029 -0.318212 -7.1493
upperneck 6.88434 -0.919068 9.74836
head 1.52292 -0.447721 4.54884
rclavicle -3.67752e-015 3.53837e-014
rhumerus -45.4713 -29.3167 -65.2558
rradius 21.3349
rwrist 9.6286
rhand -6.53055 -52.3685
rfingers 7.12502
rthumb 19.3223 -81.4285
lclavicle -3.67752e-015 3.53837e-014
lhumerus -14.1915 -7.7818 81.8807
lradius 38.2529
lwrist 3.62831
lhand -23.6989 -12.3012
lfingers 7.12502
lthumb 2.76819 17.6605
rfemur -43.3233 7.10745 5.68573
rtibia 5.79635
rfoot -13.7628 -18.3425
rtoes -24.2108
lfemur -13.6644 -10.6904 -24.1829
ltibia 15.6053
lfoot -14.6463 -6.83828
ltoes -40.6563
794
root 15.651 15.7579 -11.4905 -188.341 83.7253 150.831
lowerback -26.4355 -5.06213 -5.37621
upperback 1.08283 -4.83246 -0.29766
thorax 15.8123 -2.50388 0.774611
lowerneck 4.25699 -0.161052 -7.1286
upperneck 7.18963 -0.701364 9.52234
head 1.6448 -0.333005 4.46498
rclavicle 3.47873e-015 1.59028e-015
rhumerus -46.0083 -30.4204 -64.0756
rradius 20.8415
rwrist 10.943
rhand -6.4214 -52.536
rfingers 7.12502
rthumb 19.4272 -81.5855
lclavicle 3.47873e-015 1.59028e-015
lhumerus -14.3128 -7.53504 81.9127
lradius 38.4471
lwrist 3.41
lhand -23.7108 -12.361
lfingers 7.12502
lthumb 2.75661 17.6009
rfemur -43.1319 7.41742 5.75309
rtibia 6.05397
rfoot -13.4736 -18.7885
rtoes -25.1096
lfemur -13.3545 -11.2537 -24.1293
ltibia 16.4617
lfoot -14.9442 -6.58069
ltoes -40.0535
795
root 15.8052 15.7391 -11.4674 -188.524 83.5049 150.639
lowerback -26.5902 -5.15171 -5.49992
upperback 0.981996 -4.90825 -0.226432
thorax 15.7908 -2.54521 0.883685
lowerneck 4.78605 -0.241602 -7.16855
upperneck 6.57958 -0.817565 9.78215
head 1.36103 -0.4072 4.56139
rclavicle -2.50469e-014 -1.70955e-014
rhumerus -46.5087 -31.0651 -63.1064
rradius 20.3082
rwrist 11.8023
rhand -6.08506 -52.4956
rfingers 7.12502
rthumb 19.7506 -81.5122
lclavicle -2.50469e-014 -1.70955e-014
lhumerus -14.7316 -7.67336 82.0729
lradius 38.8545
lwrist 3.47929
lhand -23.6587 -12.4387
lfingers 7.12502
lthumb 2.80695 17.5226
rfemur -42.893 5.72576 6.96986
rtibia 6.48809
rfoot -12.2805 -17.1103
rtoes -27.0342
lfemur -13.2201 -11.7597 -24.1694
ltibia 17.4594
lfoot -15.0245 -6.81701
ltoes -37.1003
